PathFileType	3	(X/Y/Z)	RCH0000002 BBF 04.c3d
DataRate	CameraRate	NumFrames	NumMarkers	Units	OrigDataRate	OrigDataStartFrame	OrigNumFrames
100.0	100.0	12	23	mm	100.0	529	346
Frame#	Time	T2			MAN			RASI			LPAT			LKNE			LANK			LMED			LHEE			LTOE			RPAT			RKNE			LASI			T10			RPSI			RANK			RTOE			RMED			RHEE			LPSI			RTHI			LTHI			RTIB			LTIB			
		X1	Y1	Z1	X2	Y2	Z2	X3	Y3	Z3	X4	Y4	Z4	X5	Y5	Z5	X6	Y6	Z6	X7	Y7	Z7	X8	Y8	Z8	X9	Y9	Z9	X10	Y10	Z10	X11	Y11	Z11	X12	Y12	Z12	X13	Y13	Z13	X14	Y14	Z14	X15	Y15	Z15	X16	Y16	Z16	X17	Y17	Z17	X18	Y18	Z18	X19	Y19	Z19	X20	Y20	Z20	X21	Y21	Z21	X22	Y22	Z22	X23	Y23	Z23	

529	5.280	879.31134	104.67810	974.11702	1013.36806	107.16635	955.00324	1004.33784	-52.15587	672.04105	1123.42113	74.56140	409.83908	1096.89362	135.04407	360.11337	1068.17401	164.21942	92.28448	1070.96363	93.06459	98.93308	1027.05514	121.16851	114.55285	1117.19847	129.46055	86.18292	956.07721	12.95210	372.05989	907.06128	-42.13631	348.53738	1021.18718	121.95039	642.30876	903.89393	72.39793	789.01110	898.18127	20.06328	704.15250	789.87066	-34.19661	97.82816	822.42997	11.04968	77.51228	773.02514	30.75473	117.57908	750.75425	-13.43599	143.62880	902.28209	89.53808	688.02104	951.96313	-115.50115	448.30231	1046.66891	204.68325	474.71952	859.14631	-104.59932	235.76314	1087.35153	209.61894	254.60966	
530	5.290	889.12300	106.36956	971.24708	1023.25837	106.88603	952.99743	1013.64006	-53.13707	670.01139	1131.88030	70.46031	406.33938	1107.33735	132.42903	357.14774	1082.06370	164.23027	88.83483	1083.03862	92.99911	95.23746	1039.52403	121.88126	110.41139	1130.45577	128.57188	83.27020	968.43602	11.53022	369.09579	918.02493	-42.50927	346.27709	1032.93041	120.81832	640.60009	914.53307	72.68337	786.56436	908.30437	20.39595	701.81400	794.00950	-34.55872	98.91141	825.62914	10.60255	76.96928	778.60469	30.54375	119.07644	757.00638	-13.27539	146.08423	913.39775	89.85124	685.86780	961.22404	-116.22609	446.46182	1059.46953	202.46720	472.41722	866.56990	-105.01988	235.24999	1100.59887	207.94686	251.77820	
531	5.300	898.88718	108.05047	968.34410	1033.13114	106.48945	951.17799	1023.11992	-54.02075	667.90033	1139.78475	66.85140	402.58107	1116.97538	130.23554	354.05581	1093.18085	164.40981	85.63895	1092.45227	93.11977	91.91917	1049.48223	122.81558	106.82719	1140.93457	127.86369	80.42541	981.79554	9.80155	365.97423	929.93326	-43.03033	343.81515	1044.68398	119.78302	639.06442	925.41954	72.83110	784.19367	918.56309	20.66324	699.59870	799.17860	-35.13331	100.00480	829.59674	9.93883	76.27322	785.32296	30.09822	120.57423	764.53380	-13.31435	148.59655	924.61508	90.11212	684.00395	971.00218	-117.01597	444.60661	1071.84441	200.56114	470.16022	875.03574	-105.63779	234.72669	1112.21074	206.54508	248.96593	
532	5.310	908.59508	109.63606	965.51789	1042.97390	105.95836	949.60328	1032.73950	-54.78918	665.76128	1147.16098	63.92972	398.74813	1125.78745	128.61447	350.98746	1101.72769	164.90592	82.74094	1099.41388	93.56696	89.05022	1057.11599	124.10812	103.83787	1148.84223	127.47923	77.72963	996.04387	7.78834	362.79568	942.71286	-43.70849	341.22564	1056.37195	118.87343	637.77500	936.48799	72.81313	781.98563	928.89835	20.86010	697.57033	805.49212	-35.93802	101.08715	834.45727	9.03623	75.43784	793.25990	29.40365	122.03545	773.40481	-13.57736	151.10849	935.85879	90.31831	682.50072	981.25026	-117.85733	442.79737	1083.68428	199.08754	468.06477	884.57668	-106.45894	234.21979	1122.23679	205.57181	246.25900	
533	5.320	918.23990	111.04394	962.88534	1052.77538	105.28001	948.32729	1042.45617	-55.42590	663.65905	1154.02808	61.86284	395.02476	1133.75354	127.69172	348.09301	1108.02074	165.84238	80.18476	1104.23132	94.45917	86.69016	1062.70897	125.87477	101.46478	1154.48904	127.53381	75.26201	1011.03910	5.54489	359.68728	956.27141	-44.53927	338.60490	1067.91281	118.11626	636.79901	947.65938	72.60941	780.02884	939.24669	20.98106	695.79422	813.04819	-36.98572	102.13993	840.34079	7.87840	74.49184	802.46521	28.45205	123.42421	783.64620	-14.08777	153.55962	947.04771	90.46544	681.42146	991.92438	-118.72963	441.10463	1094.87438	198.15043	466.24463	895.21044	-107.47762	233.76204	1130.78202	205.16555	243.74306	
534	5.330	927.81670	112.19941	960.56496	1062.52550	104.44885	947.39752	1052.22479	-55.91708	661.66806	1160.39885	60.77047	391.58111	1140.85982	127.55168	345.51087	1112.45278	167.29471	78.00933	1107.27940	95.87053	84.88042	1066.61017	128.18583	99.71162	1158.25526	128.09523	73.09182	1026.62128	3.15556	356.79628	970.50532	-45.50322	336.06718	1079.22461	117.53433	636.19377	958.84483	72.20986	778.40946	949.54393	21.02141	694.33340	821.92383	-38.28123	103.14911	847.37963	6.45789	73.47833	812.95656	27.24485	124.70913	795.24053	-14.86300	155.89123	958.09959	90.54835	680.81699	1002.98835	-119.60669	439.60601	1105.30819	197.82300	464.80067	906.93771	-108.67582	233.39144	1137.99306	205.42418	241.49558	
535	5.340	937.32230	113.04026	958.67020	1072.21539	103.46768	946.85261	1062.00003	-56.25284	659.86897	1166.28124	60.70652	388.55956	1147.10448	128.22368	343.35542	1115.44676	169.27308	76.24327	1108.96292	97.81420	83.63875	1069.19586	131.04612	98.56267	1160.55242	129.17174	71.27154	1042.62563	0.72837	354.28028	985.30751	-46.56619	333.73791	1090.23018	117.14493	636.00294	969.95052	71.61574	777.20595	959.72870	20.97838	693.24400	832.17053	-39.81741	104.10615	855.70295	4.77950	72.45220	824.72044	25.79598	125.86614	808.12759	-15.90873	158.05090	968.93603	90.56260	680.72091	1014.41578	-120.45885	438.38245	1114.90098	198.13679	463.81037	919.73957	-110.02317	233.14989	1144.03835	206.38817	239.57850	
536	5.350	946.75507	113.52100	957.30208	1081.83744	102.34815	946.71981	1071.73861	-56.42841	658.34382	1171.68035	61.64709	386.06346	1152.50248	129.67402	341.70699	1117.40973	171.71552	74.90065	1109.67984	100.23497	82.95542	1070.83158	134.38444	97.98199	1161.78472	130.70955	69.83219	1058.89520	-1.61523	352.29548	1000.57418	-47.68171	331.74530	1100.86190	116.95851	636.25314	980.88342	70.84023	776.48359	969.74570	20.85212	692.57052	843.81096	-41.57177	105.00813	865.42896	2.86335	71.47604	837.71525	24.13442	126.88069	822.20991	-17.21333	159.99647	979.48692	90.50561	681.14587	1026.18958	-121.25557	437.51375	1123.60054	199.07467	463.31926	933.57491	-111.47812	233.08156	1149.08640	208.03120	238.03266	
537	5.360	956.11482	113.61581	956.54182	1091.38528	101.11046	947.01258	1081.40139	-56.44482	657.17003	1176.60063	63.48740	384.15026	1157.08848	131.80563	340.60563	1118.69479	174.49308	73.97882	1109.78980	103.01257	82.79249	1071.84052	138.05531	97.91451	1162.31606	132.59994	68.78161	1075.29131	-3.75342	350.98424	1016.20977	-48.79516	330.21115	1111.06551	116.97775	636.95150	991.55709	69.90779	776.28926	979.54840	20.64602	692.34158	856.83688	-43.50434	105.85735	876.65532	0.74695	70.61519	851.87613	22.30530	127.74907	837.36192	-18.74403	161.69903	989.69418	90.37742	682.08116	1038.29903	-121.96827	437.07361	1131.39361	200.56938	463.33571	948.37859	-112.99017	233.23104	1153.28700	210.26027	236.87509	
538	5.370	965.40249	113.32023	956.44441	1100.85387	99.78237	947.72872	1090.95528	-56.30910	656.41411	1181.04866	66.04952	382.83021	1160.91789	134.46609	340.04973	1119.57658	177.42577	73.45877	1109.59183	105.97516	83.08674	1072.48233	141.85326	98.28945	1162.44699	134.69423	68.10569	1091.70070	-5.57786	350.46353	1032.12962	-49.84944	329.24176	1120.80259	117.19737	638.08449	1001.89720	68.85240	776.64722	989.10109	20.36628	692.56681	871.20834	-45.55769	106.66090	889.44842	-1.51457	69.93289	867.12041	20.36914	128.47931	853.44090	-20.44600	163.14496	999.51431	90.18055	683.49243	1050.73505	-122.57297	437.12460	1138.30705	202.50858	463.83035	964.06128	-114.50327	233.64123	1156.75932	212.92548	236.09953	
539	5.380	974.61997	112.65115	957.03368	1110.23941	98.39749	948.84915	1100.37483	-56.03373	656.12553	1185.03632	69.10090	382.07058	1164.06570	137.46333	339.99974	1120.24245	180.30656	73.30739	1109.31298	108.92093	83.75597	1072.94432	145.53749	99.02591	1162.40342	136.82392	67.77187	1108.03916	-7.00630	350.81553	1048.26079	-50.79131	328.91998	1130.05159	117.60451	639.61837	1011.84603	67.71482	777.55640	998.38004	20.02075	693.23508	886.85405	-47.65958	107.43057	903.83324	-3.85053	69.48663	883.35287	18.39890	129.09138	870.29815	-22.24485	164.33716	1008.91966	89.91905	685.32333	1063.48481	-123.05258	437.71347	1144.40385	204.74641	464.74034	980.51154	-115.96004	234.35079	1159.58874	215.83793	235.67957	
540	5.390	983.76984	111.64515	958.29972	1119.53934	96.99297	950.33788	1109.64341	-55.63548	656.33164	1188.58438	72.38159	381.80449	1166.62341	140.58706	340.38590	1120.79820	182.92898	73.48105	1109.10753	111.64396	84.70758	1073.34434	148.86275	100.03947	1162.33652	138.82276	67.73408	1124.25154	-7.99198	352.08152	1064.54128	-51.57736	329.29907	1138.80743	118.17992	641.50118	1021.36556	66.53915	778.98955	1007.37386	19.61722	694.31464	903.67274	-49.72796	108.18330	919.78529	-6.17918	69.32608	900.46996	16.47487	129.61705	887.78843	-24.05253	165.29527	1017.89852	89.59704	687.49914	1076.52710	-123.39866	438.86697	1149.77475	207.11988	465.97765	997.60039	-117.30650	235.39138	1161.83199	218.79304	235.57367	
